<svg fill="none" height="31" viewBox="0 0 35 31" width="35" xmlns="http://www.w3.org/2000/svg">
    <path clip-rule="evenodd"
        d="M26.7934 5.65386C26.8617 5.77331 26.9813 5.85863 27.1351 5.85863C31.2351 5.85863 34.5834 9.20325 34.5834 13.2987V23.4349C34.5834 27.5304 31.2351 30.875 27.1351 30.875H7.86508C3.748 30.875 0.416748 27.5304 0.416748 23.4349V13.2987C0.416748 9.20325 3.748 5.85863 7.86508 5.85863C8.00175 5.85863 8.13841 5.79037 8.18966 5.65386L8.29216 5.44908C8.35104 5.32515 8.41148 5.19786 8.47283 5.06864C8.90987 4.14808 9.39339 3.12963 9.693 2.53108C10.4788 0.995283 11.8113 0.142064 13.4684 0.125H21.5147C23.1717 0.142064 24.5213 0.995283 25.3072 2.53108C25.5762 3.06861 25.9862 3.93448 26.3813 4.76902C26.4628 4.94121 26.5437 5.11207 26.6226 5.27844L26.7934 5.65386ZM25.5464 12.2066C25.5464 13.0598 26.2297 13.7424 27.0839 13.7424C27.938 13.7424 28.6385 13.0598 28.6385 12.2066C28.6385 11.3534 27.938 10.6537 27.0839 10.6537C26.2297 10.6537 25.5464 11.3534 25.5464 12.2066ZM14.5446 14.8516C15.3475 14.0495 16.3896 13.6229 17.5 13.6229C18.6104 13.6229 19.6525 14.0495 20.4384 14.8345C21.2242 15.6195 21.6513 16.6604 21.6513 17.7696C21.6342 20.0562 19.7892 21.9162 17.5 21.9162C16.3896 21.9162 15.3475 21.4896 14.5617 20.7046C13.7759 19.9197 13.3488 18.8787 13.3488 17.7696V17.7525C13.3317 16.6774 13.7588 15.6365 14.5446 14.8516ZM22.2322 22.5135C21.0193 23.725 19.3451 24.4759 17.5001 24.4759C15.7063 24.4759 14.0322 23.7762 12.7509 22.5135C11.4868 21.2336 10.7863 19.5613 10.7863 17.7696C10.7693 15.9949 11.4697 14.3226 12.7338 13.0427C14.0151 11.7629 15.7063 11.0633 17.5001 11.0633C19.2938 11.0633 20.9851 11.7629 22.2493 13.0257C23.5134 14.3055 24.2138 15.9949 24.2138 17.7696C24.1968 19.6296 23.4451 21.3019 22.2322 22.5135Z"
        fill="white" fill-rule="evenodd" />
</svg>
