<svg fill="none" height="16" viewBox="0 0 20 16" width="20" xmlns="http://www.w3.org/2000/svg">
    <path d="M7.71503 8C8.86603 8 9.71503 7.151 9.71503 6C9.71503 4.849 8.86603 4 7.71503 4C6.56403 4 5.71503 4.849 5.71503 6C5.71503 7.151 6.56303 8 7.71503 8Z" fill="#1A2237" />
    <path d="M16 5H12V7H16V5Z" fill="#1A2237" />
    <path d="M16 9H13V11H16V9Z" fill="#1A2237" />
    <path d="M7.715 8.75C9.754 8.75 11.43 10.626 11.43 12H4C4 10.626 5.676 8.75 7.715 8.75Z" fill="#1A2237" />
    <path clip-rule="evenodd" d="M18 0H2C0.897 0 0 0.841 0 1.875V14.125C0 15.159 0.897 16 2 16H18C19.103 16 20 15.159 20 14.125V1.875C20 0.841 19.103 0 18 0ZM18 14L2 13.989V2L18 2.011V14Z" fill="#1A2237" fill-rule="evenodd" />
</svg>
