<svg fill="none" height="76" viewBox="0 0 76 76" width="76" xmlns="http://www.w3.org/2000/svg">
    <path d="M0 20C0 8.95431 8.95431 0 20 0H56C67.0457 0 76 8.9543 76 20V56C76 67.0457 67.0457 76 56 76H20C8.95431 76 0 67.0457 0 56V20Z" fill="white" />
    <path clip-rule="evenodd"
        d="M37.3247 50.4764C37.3329 50.5065 37.3508 50.5331 37.3756 50.5518C37.4007 50.5706 37.4187 50.5974 37.4265 50.6279C37.7273 51.8072 37.743 53.0437 37.4719 54.231C37.1973 55.4341 36.6368 56.5498 35.8397 57.4796C35.0427 58.4095 34.0336 59.1249 32.9015 59.5629C31.7695 60.0008 30.5492 60.1476 29.3483 59.9906C28.1474 59.8337 27.003 59.3776 26.0156 58.6626C25.0283 57.9475 24.2286 56.9957 23.6871 55.8909C23.1455 54.7859 22.8788 53.5621 22.9104 52.3273C22.9419 51.0923 23.2708 49.8843 23.868 48.8097C24.8065 47.1659 25.4169 45.3485 25.6639 43.4627C25.9109 41.5769 25.7895 39.6599 25.3069 37.822C24.8243 35.9844 23.99 34.2623 22.852 32.7551C21.714 31.2479 20.2949 29.9855 18.6764 29.0405C17.4152 28.2942 16.399 27.1832 15.756 25.848C15.1132 24.5128 14.8724 23.013 15.064 21.5384C15.2558 20.0635 15.8715 18.6798 16.8333 17.5618C17.7953 16.4438 19.0602 15.6415 20.4685 15.2565C21.8769 14.8715 23.3656 14.9209 24.7464 15.3983C26.1273 15.8759 27.3386 16.76 28.2272 17.9395C29.116 19.1188 29.6424 20.5405 29.7398 22.0248C29.8374 23.5091 29.5018 24.9897 28.7751 26.2795C26.913 29.594 26.4117 33.5254 27.3807 37.2156C28.3498 40.9058 30.7105 44.0549 33.9473 45.9752C35.5991 46.9768 36.8084 48.5893 37.3247 50.4764ZM52.1397 49.6762C52.1471 49.6479 52.1432 49.6177 52.1289 49.592C50.2851 46.2862 49.7917 42.3714 50.7569 38.696C51.726 35.0058 54.0867 31.8567 57.3235 29.9365C58.5849 29.19 59.601 28.0791 60.244 26.744C60.8869 25.4086 61.1277 23.909 60.9359 22.4341C60.7443 20.9594 60.1286 19.5756 59.1666 18.4577C58.2048 17.3396 56.9399 16.5375 55.5314 16.1524C54.1231 15.7674 52.6345 15.8167 51.2537 16.2943C49.8728 16.7717 48.6615 17.656 47.7728 18.8354C46.884 20.0148 46.3577 21.4363 46.2601 22.9208C46.1627 24.4051 46.4983 25.8855 47.2248 27.1755C48.1655 28.8202 48.7775 30.6391 49.0254 32.5266C49.2732 34.4141 49.1521 36.3331 48.669 38.1725C48.186 40.0119 47.3505 41.7356 46.211 43.2438C45.0713 44.7519 43.6501 46.0147 42.0294 46.9594C40.7682 47.7057 39.752 48.8168 39.109 50.1519C38.4661 51.4873 38.2254 52.9869 38.4171 54.4618C38.6088 55.9365 39.2245 57.3203 40.1864 58.4382C41.1482 59.5563 42.4132 60.3584 43.8215 60.7434C45.23 61.1285 46.7185 61.0792 48.0993 60.6016C49.4802 60.1242 50.6915 59.2399 51.5802 58.0605C52.469 56.8811 52.9953 55.4596 53.0929 53.9751C53.1893 52.5062 52.8616 51.0408 52.1505 49.7605C52.1362 49.7347 52.1323 49.7045 52.1397 49.6762ZM30.7528 38.3413C30.7528 39.8309 31.186 41.2871 31.9974 42.5254C32.8087 43.7638 33.962 44.7286 35.311 45.2979C36.6602 45.8673 38.1443 46.0156 39.576 45.7239C41.0076 45.4321 42.3223 44.7137 43.3536 43.6592C44.3849 42.6048 45.0864 41.2621 45.3693 39.8006C45.6523 38.3393 45.5041 36.8251 44.9433 35.4497C44.3826 34.0744 43.4347 32.8997 42.2194 32.0743C41.004 31.249 39.576 30.8101 38.1161 30.813C36.1619 30.8171 34.2891 31.612 32.9086 33.0235C31.5281 34.4348 30.7528 36.3473 30.7528 38.3413Z"
        fill="#1A2237" fill-rule="evenodd" />
</svg>
