<svg fill="none" height="32" viewBox="0 0 49 32" width="49" xmlns="http://www.w3.org/2000/svg">
    <path d="M30.5671 27.9663H17.5845V4.00616H30.5671V27.9663Z" fill="#FF5F00" />
    <path d="M18.416 15.9843C18.416 11.1238 20.6321 6.79431 24.083 4.00419C21.5594 1.96392 18.3745 0.746155 14.9132 0.746155C6.71887 0.746155 0.076416 7.56837 0.076416 15.9843C0.076416 24.4001 6.71887 31.2224 14.9132 31.2224C18.3745 31.2224 21.5594 30.0046 24.083 27.9643C20.6321 25.1742 18.416 20.8447 18.416 15.9843Z" fill="#EB001B" />
    <path d="M48.0764 15.9843C48.0764 24.4001 41.4339 31.2224 33.2396 31.2224C29.7783 31.2224 26.5934 30.0046 24.0688 27.9643C27.5207 25.1742 29.7368 20.8447 29.7368 15.9843C29.7368 11.1238 27.5207 6.79431 24.0688 4.00419C26.5934 1.96392 29.7783 0.746155 33.2396 0.746155C41.4339 0.746155 48.0764 7.56837 48.0764 15.9843Z" fill="#F79E1B" />
</svg>
