<svg fill="none" height="20" viewBox="0 0 20 20" width="20" xmlns="http://www.w3.org/2000/svg">
    <path
        d="M15.707 10.293C15.316 9.902 14.684 9.902 14.293 10.293L12.699 11.887C11.96 11.667 10.581 11.167 9.70703 10.293C8.83303 9.419 8.33303 8.04 8.11303 7.301L9.70703 5.707C10.098 5.316 10.098 4.684 9.70703 4.293L5.70703 0.292998C5.31603 -0.0980018 4.68403 -0.0980018 4.29303 0.292998L1.58103 3.005C1.20103 3.385 0.987029 3.907 0.995029 4.44C1.01803 5.864 1.39503 10.81 5.29303 14.708C9.19103 18.606 14.137 18.982 15.562 19.006C15.567 19.006 15.585 19.006 15.59 19.006C16.118 19.006 16.617 18.798 16.995 18.42L19.707 15.708C20.098 15.317 20.098 14.685 19.707 14.294L15.707 10.293ZM15.58 17.005C14.332 16.984 10.062 16.649 6.70703 13.293C3.34103 9.927 3.01503 5.642 2.99503 4.419L5.00003 2.414L7.58603 5L6.29303 6.293C6.05403 6.531 5.95203 6.875 6.02103 7.205C6.04503 7.32 6.63203 10.047 8.29203 11.707C9.95203 13.367 12.679 13.954 12.794 13.978C13.127 14.049 13.468 13.946 13.706 13.707L15 12.414L17.586 15L15.58 17.005Z"
        fill="#2E3A59" />
</svg>
